<svg width="17" height="18" viewBox="0 0 17 18" fill="none" xmlns="http://www.w3.org/2000/svg">
<path d="M1.98507 1.37873C1.9181 1.11083 1.64663 0.947954 1.37873 1.01493C1.11083 1.0819 0.947954 1.35337 1.01493 1.62127L1.98507 1.37873ZM15.69 14.4623C15.9454 14.3572 16.0672 14.065 15.962 13.8096L14.2487 9.64855C14.1436 9.3932 13.8514 9.27144 13.596 9.37657C13.3407 9.48171 13.2189 9.77394 13.324 10.0293L14.847 13.728L11.1482 15.251C10.8929 15.3561 10.7711 15.6483 10.8762 15.9037C10.9814 16.159 11.2736 16.2808 11.529 16.1756L15.69 14.4623ZM1.5 1.5C1.01493 1.62127 1.01497 1.62144 1.01502 1.62162C1.01504 1.6217 1.01509 1.6219 1.01513 1.62206C1.01521 1.62239 1.01531 1.62278 1.01542 1.62323C1.01565 1.62413 1.01594 1.62527 1.01629 1.62665C1.017 1.62941 1.01796 1.63314 1.01918 1.63782C1.02162 1.64716 1.02509 1.66029 1.02966 1.67705C1.03878 1.71056 1.05226 1.75859 1.07045 1.81992C1.10682 1.94255 1.1621 2.11847 1.23928 2.33783C1.39356 2.77631 1.63583 3.38969 1.99029 4.09861C2.69818 5.51439 3.86016 7.32439 5.6746 8.87963L6.3254 8.12037C4.63984 6.67561 3.55182 4.98561 2.88471 3.65139C2.55167 2.98531 2.32519 2.41119 2.18259 2.00592C2.11134 1.8034 2.06115 1.64339 2.02916 1.53555C2.01317 1.48164 2.00174 1.44081 1.99451 1.41426C1.9909 1.40099 1.98833 1.39129 1.98677 1.38532C1.98599 1.38233 1.98547 1.38028 1.98518 1.37917C1.98504 1.37862 1.98496 1.37831 1.98495 1.37823C1.98494 1.37819 1.98494 1.37822 1.98496 1.3783C1.98497 1.37834 1.985 1.37845 1.98501 1.37847C1.98504 1.37859 1.98507 1.37873 1.5 1.5ZM5.6746 8.87963C7.4695 10.4181 9.88591 11.8143 11.833 12.8193C12.8104 13.3238 13.6773 13.7336 14.3002 14.0175C14.6117 14.1595 14.8625 14.27 15.0359 14.3453C15.1225 14.383 15.1899 14.4118 15.2358 14.4313C15.2588 14.4411 15.2764 14.4485 15.2884 14.4536C15.2944 14.4561 15.299 14.4581 15.3022 14.4594C15.3038 14.46 15.305 14.4606 15.3059 14.4609C15.3063 14.4611 15.3066 14.4612 15.3069 14.4613C15.307 14.4614 15.3071 14.4614 15.3072 14.4615C15.3073 14.4615 15.3074 14.4615 15.4997 14C15.692 13.5385 15.692 13.5385 15.692 13.5385C15.692 13.5385 15.692 13.5385 15.6919 13.5384C15.6918 13.5384 15.6916 13.5383 15.6913 13.5382C15.6907 13.5379 15.6897 13.5375 15.6884 13.537C15.6858 13.5359 15.6817 13.5342 15.6763 13.5319C15.6654 13.5273 15.6489 13.5203 15.627 13.511C15.5834 13.4925 15.5184 13.4647 15.4342 13.4281C15.2658 13.355 15.0205 13.2468 14.7149 13.1075C14.1034 12.8289 13.2516 12.4262 12.2917 11.9307C10.3639 10.9357 8.0305 9.58189 6.3254 8.12037L5.6746 8.87963Z" fill="#0082E4"/>
</svg>
