<svg width="24" height="24" viewBox="0 0 24 24" fill="none" xmlns="http://www.w3.org/2000/svg">
<path d="M19.68 1.91998H4.32004C2.99668 1.91998 1.92004 2.99662 1.92004 4.31998V19.68C1.92004 21.0033 2.99668 22.08 4.32004 22.08H19.68C21.0034 22.08 22.08 21.0033 22.08 19.68V4.31998C22.08 2.99662 21.0034 1.91998 19.68 1.91998ZM17.7629 10.715C17.654 10.7251 17.5436 10.7318 17.4317 10.7318C16.1727 10.7318 15.0663 10.0843 14.4226 9.10558C14.4226 11.6731 14.4226 14.5944 14.4226 14.6433C14.4226 16.9037 12.59 18.7363 10.3296 18.7363C8.06932 18.7363 6.23668 16.9037 6.23668 14.6433C6.23668 12.383 8.06932 10.5504 10.3296 10.5504C10.4151 10.5504 10.4986 10.5581 10.5826 10.5633V12.5803C10.4986 12.5702 10.416 12.5549 10.3296 12.5549C9.17572 12.5549 8.24068 13.4899 8.24068 14.6438C8.24068 15.7977 9.17572 16.7328 10.3296 16.7328C11.4836 16.7328 12.5026 15.8237 12.5026 14.6697C12.5026 14.6241 12.5228 5.26462 12.5228 5.26462H14.4504C14.6319 6.9883 16.0234 8.34862 17.7629 8.47342V10.715Z" fill="#E9E9EA"/>
</svg>
