<svg width="147" height="28" viewBox="0 0 147 28" fill="none" xmlns="http://www.w3.org/2000/svg">
<g clip-path="url(#clip0_357_60395)">
<path d="M4.793 22.0241H8.495V7.51908H13.338V4.02008H0V7.52008H4.793V22.0241ZM13.343 22.0241H16.817V15.9641C16.817 13.8591 17.907 12.5911 19.557 12.5911C20.139 12.5911 20.596 12.6921 21.128 12.8701V9.34508C20.7493 9.23556 20.3561 9.18431 19.962 9.19308C18.542 9.19308 17.249 10.1311 16.817 11.3731V9.34608H13.343V22.0241ZM27.796 22.3031C29.546 22.3031 30.864 21.4151 31.448 20.6031V22.0231H34.922V9.34608H31.448V10.7661C30.864 9.95508 29.546 9.06708 27.796 9.06708C24.424 9.06708 21.837 12.1101 21.837 15.6851C21.837 19.2611 24.424 22.3041 27.797 22.3041L27.796 22.3031ZM28.532 19.1331C26.604 19.1331 25.336 17.6881 25.336 15.6851C25.336 13.6811 26.604 12.2351 28.532 12.2351C30.459 12.2351 31.727 13.6811 31.727 15.6851C31.727 17.6881 30.459 19.1331 28.532 19.1331ZM43.193 22.3031C44.943 22.3031 46.261 21.4151 46.844 20.6031V22.0231H50.318V3.00708H46.844V10.7671C46.261 9.95508 44.943 9.06708 43.193 9.06708C39.82 9.06708 37.233 12.1101 37.233 15.6851C37.233 19.2611 39.82 22.3041 43.193 22.3041V22.3031ZM43.928 19.1331C42.001 19.1331 40.733 17.6881 40.733 15.6851C40.733 13.6811 42.001 12.2351 43.928 12.2351C45.855 12.2351 47.123 13.6811 47.123 15.6851C47.123 17.6881 45.855 19.1331 43.928 19.1331ZM55.166 7.41208C55.4576 7.41458 55.7469 7.35942 56.0171 7.24977C56.2873 7.14012 56.5332 6.97813 56.7406 6.77313C56.9481 6.56812 57.1129 6.32414 57.2257 6.05521C57.3385 5.78628 57.3971 5.49771 57.398 5.20608C57.3971 4.91445 57.3385 4.62587 57.2257 4.35694C57.1129 4.08801 56.9481 3.84403 56.7406 3.63903C56.5332 3.43402 56.2873 3.27204 56.0171 3.16239C55.7469 3.05273 55.4576 2.99757 55.166 3.00008C54.5824 3.00478 54.024 3.23871 53.6113 3.6514C53.1986 4.06409 52.9647 4.62246 52.96 5.20608C52.9647 5.78969 53.1986 6.34807 53.6113 6.76075C54.024 7.17344 54.5824 7.40737 55.166 7.41208ZM53.442 22.0241H56.916V9.49008H53.442V22.0241ZM59.998 22.0241H63.472V15.8371C63.472 13.4021 64.664 12.2361 66.287 12.2361C67.732 12.2361 68.519 13.3521 68.519 15.1771V22.0241H71.993V14.5941C71.993 11.2981 70.167 9.06608 67.099 9.06608C65.45 9.06608 64.157 9.77608 63.472 10.7901V9.34508H59.998V22.0241ZM80.833 18.6501C79.083 18.6501 77.613 17.3311 77.613 15.4041C77.613 13.4521 79.083 12.1581 80.833 12.1581C82.583 12.1581 84.053 13.4521 84.053 15.4041C84.053 17.3311 82.583 18.6501 80.833 18.6501ZM80.427 27.5001C84.307 27.5001 87.249 25.5221 87.249 20.9571V9.26808H83.775V10.6881C83.09 9.70008 81.72 8.99008 80.098 8.99008C76.776 8.99008 74.113 11.8301 74.113 15.4051C74.113 18.9551 76.776 21.7951 80.098 21.7951C81.721 21.7951 83.09 21.0601 83.775 20.1221V20.9841C83.775 23.0131 82.431 24.4581 80.377 24.4581C78.957 24.4581 77.537 23.9761 76.421 22.8861L74.519 25.4721C75.964 26.8671 78.221 27.5001 80.427 27.5001ZM94.594 22.0241H97.864L105.32 4.02008H101.263L96.242 16.5211L91.145 4.02008H87.164L94.594 22.0241ZM108.508 7.26608C108.8 7.26845 109.089 7.21319 109.359 7.10348C109.629 6.99377 109.875 6.83176 110.082 6.62677C110.289 6.42178 110.454 6.17784 110.567 5.90898C110.68 5.64012 110.738 5.35162 110.739 5.06008C110.738 4.76853 110.68 4.48004 110.567 4.21117C110.454 3.94231 110.289 3.69838 110.082 3.49338C109.875 3.28839 109.629 3.12639 109.359 3.01667C109.089 2.90696 108.8 2.8517 108.508 2.85408C107.316 2.85408 106.301 3.84208 106.301 5.06008C106.301 6.27708 107.316 7.26608 108.508 7.26608ZM106.783 22.0241H110.257V9.34508H106.783V22.0241ZM119.248 22.3031C121.91 22.3031 123.939 21.1871 125.131 19.4631L122.544 17.5361C121.961 18.4231 120.871 19.1331 119.273 19.1331C117.6 19.1331 116.104 18.1951 115.901 16.4961H125.384C125.46 15.9631 125.435 15.6081 125.435 15.3041C125.435 11.1711 122.519 9.06608 119.197 9.06608C115.343 9.06608 112.528 11.9311 112.528 15.6841C112.528 19.6911 115.47 22.3031 119.248 22.3031ZM116.027 14.1381C116.357 12.5911 117.802 11.9311 119.096 11.9311C120.389 11.9311 121.657 12.6161 121.961 14.1381H116.027ZM138.45 22.0241H141.899L146.083 9.34508H142.355L139.972 17.4591L137.385 9.34508H134.723L132.162 17.4591L129.753 9.34508H126.05L130.26 22.0241H133.708L136.067 14.8221L138.45 22.0241Z" fill="white"/>
</g>
<defs>
<clipPath id="clip0_357_60395">
<rect width="147" height="28" fill="white"/>
</clipPath>
</defs>
</svg>
